<?xml version="1.0" encoding="UTF-8" standalone="no"?>
<svg
   viewBox="0 0 400 400"
   role="img"
   aria-label="FLET"
   version="1.1"
   id="svg4"
   sodipodi:docname="flet-logo-v4.svg"
   inkscape:version="1.4.4 (dcaf3e7, 2026-05-05)"
   width="400"
   height="400"
   inkscape:export-filename="flet-logo-v3.png"
   inkscape:export-xdpi="48"
   inkscape:export-ydpi="48"
   xml:space="preserve"
   xmlns:inkscape="http://www.inkscape.org/namespaces/inkscape"
   xmlns:sodipodi="http://sodipodi.sourceforge.net/DTD/sodipodi-0.dtd"
   xmlns="http://www.w3.org/2000/svg"
   xmlns:svg="http://www.w3.org/2000/svg"
   xmlns:rdf="http://www.w3.org/1999/02/22-rdf-syntax-ns#"
   xmlns:cc="http://creativecommons.org/ns#"
   xmlns:dc="http://purl.org/dc/elements/1.1/"><defs
     id="defs4" /><sodipodi:namedview
     id="namedview4"
     pagecolor="#ffffff"
     bordercolor="#000000"
     borderopacity="0.25"
     inkscape:showpageshadow="2"
     inkscape:pageopacity="0.0"
     inkscape:pagecheckerboard="0"
     inkscape:deskcolor="#d1d1d1"
     showguides="true"
     inkscape:zoom="0.51748553"
     inkscape:cx="636.73278"
     inkscape:cy="-276.33623"
     inkscape:window-width="2304"
     inkscape:window-height="1157"
     inkscape:window-x="1728"
     inkscape:window-y="30"
     inkscape:window-maximized="0"
     inkscape:current-layer="svg4"
     showgrid="true"><inkscape:grid
       id="grid13"
       units="px"
       originx="-1022.0515"
       originy="620.88251"
       spacingx="1"
       spacingy="1"
       empcolor="#0099e5"
       empopacity="0.30196078"
       color="#0099e5"
       opacity="0.14901961"
       empspacing="5"
       enabled="true"
       visible="true" /><inkscape:page
       x="0"
       y="0"
       width="400"
       height="400"
       id="page2"
       margin="0"
       bleed="0" /></sodipodi:namedview><title
     id="title1">FLET</title><metadata
     id="metadata8"><rdf:RDF><cc:Work
         rdf:about=""><dc:title>FLET</dc:title></cc:Work></rdf:RDF></metadata><rect
     style="font-variation-settings:'wght' 500;fill:none;stroke:#b3b3b3;stroke-width:0"
     id="rect1-0-0"
     width="400"
     height="400"
     x="0"
     y="0"
     inkscape:export-filename="logo-v4-padded-1-512x512-transparent.png"
     inkscape:export-xdpi="122.88"
     inkscape:export-ydpi="122.88" /><g
     id="g18-3-0"
     transform="matrix(0.80836653,0,0,0.80836653,47.148286,529.37101)"><path
       fill="#0098da"
       fill-opacity="0.639"
       d="m 200.63848,-393.81653 c -9.17235,-9.55307 -9.17235,-17.71898 0,-27.27205 C 226.84523,-448.38309 266,-482 330,-502 c 9.96506,-3.11408 15.90008,4.63778 14,14 -6.54846,32.26605 -10.418,56.47549 -10.68635,80.54744 0.26835,24.07196 4.13789,48.2814 10.68635,80.54745 1.90008,9.36222 -4.03494,17.11408 -14,14 -64,-20 -103.15477,-53.61691 -129.36152,-80.91142 z"
       id="path2-6-5-3-0-5-8-10-3-5"
       style="display:inline;mix-blend-mode:normal;fill:#27b0f5;fill-opacity:1;stroke-width:2.62015;stroke-dasharray:none" /><path
       fill="#ee3167"
       d="m 45.577922,-378.88272 c -15.674995,-21.42738 -15.674995,-35.71229 0,-57.13967 C 61.25304,-457.44974 120,-537.41553 252,-605 c 20.9287,-10.71557 32.80454,5.54729 28,19 -22.76937,63.75424 -34.01776,120.85191 -33.74516,178.54744 -0.2726,57.69554 10.97579,114.79321 33.74516,178.54745 4.80454,13.45271 -7.0713,29.71557 -28,19 C 120,-277.48958 61.25304,-357.45537 45.577922,-378.88272 Z"
       id="path1-7-1-7-9-5-9-6-7-6"
       style="fill:#ff005f;fill-opacity:1;stroke-width:0;stroke-dasharray:none" /><path
       id="path5-7-0-3-8-3-0-7-8"
       style="display:inline;mix-blend-mode:normal;fill:#8c0075;fill-opacity:1;stroke-width:2.23817;stroke-dasharray:none"
       d="m 199.45908,-395.44598 c -7.59976,-8.41314 -7.59976,-15.60001 0,-24.01315 12.56302,-13.90733 50.05781,-43.72203 50.05781,-43.72203 -2.1637,18.27023 -3.20379,37.0672 -3.13658,55.7286 -0.0672,18.66141 0.97288,37.45838 3.13658,55.72861 0,0 -37.49479,-29.8147 -50.05781,-43.72203 z" /></g></svg>
