<?xml version="1.0" encoding="UTF-8" standalone="no"?>
<svg
   xml:space="preserve"
   width="186.20721"
   height="186.20721"
   shape-rendering="geometricPrecision"
   text-rendering="geometricPrecision"
   image-rendering="optimizeQuality"
   fill-rule="evenodd"
   clip-rule="evenodd"
   viewBox="0 0 109.53312 109.4909"
   version="1.1"
   id="svg3"
   xmlns="http://www.w3.org/2000/svg"
   xmlns:svg="http://www.w3.org/2000/svg"><defs
   id="defs3" />
    
    
    
<circle
   style="fill:#ffffff;stroke:#999999;stroke-width:0;stroke-linecap:square;stroke-linejoin:round"
   id="path4"
   cx="54.766567"
   cy="54.736416"
   r="54.766567" /><path
   fill="#ee3167"
   d="M 23.692302,56.314443 C 23.437781,55.861961 23.499054,55.53674 23.725292,55.079544 33.10487,37.654269 47.259076,26.964379 65.094414,19.32403 c 0.608022,-0.259235 1.50356,0.452482 1.286746,1.088785 -2.658333,7.734616 -4.534248,15.266558 -5.623033,23.359389 -0.989805,7.456529 -1.26318,15.167579 -0.259235,23.222703 1.065218,9.139194 3.247502,16.72299 5.877554,24.89595 0.292228,0.90967 -0.636303,1.32445 -1.348019,0.97566 C 46.457809,83.722607 32.383729,71.769536 23.692302,56.314443 Z"
   id="path1"
   style="stroke-width:0.471336" /><path
   fill="#0098da"
   fill-opacity="0.639"
   d="M 79.012955,72.396413 C 68.747267,69.17719 59.560937,63.719125 51.420972,56.507691 c -0.542036,-0.480762 -0.480763,-1.154772 0.0094,-1.621394 8.083405,-7.729903 17.255595,-13.795991 27.398736,-18.085145 0.890824,-0.381782 1.626108,0.358215 1.36216,1.3763 -2.875147,11.024538 -3.506737,21.917103 0.03771,32.837947 0.292228,0.909678 -0.443055,1.621395 -1.216046,1.381014 z"
   id="path2"
   style="stroke-width:0.471336" /><path
   fill="#5abae7"
   d="M 79.012955,72.396413 C 72.254003,70.275402 65.961674,67.183442 60.131253,63.266643 59.725904,57.021447 59.69291,54.24528 60.348067,47.359068 A 89.478342,89.478342 0 0 1 78.829134,36.801152 c 0.890824,-0.381782 1.626108,0.358215 1.36216,1.3763 -2.875147,11.024538 -3.506737,21.917103 0.03771,32.837947 0.292228,0.909678 -0.443055,1.621395 -1.216045,1.381014 z"
   id="path3"
   style="stroke-width:0.471336" /></svg>
